<svg viewBox="0 0 48 48" xmlns="http://www.w3.org/2000/svg" fill="none" stroke="#2E4F3B" stroke-width="2" stroke-linecap="round" stroke-linejoin="round">
  <path d="M10 16c0-3.5 2.8-6 7-6s7 3 7 7-2.5 6-6 8c-3.5 1.7-8 0-8-4.5Z"/>
  <path d="M31 16c0-3.5-2.8-6-7-6"/>
  <path d="M38 16c0-3.5-2.8-6-7-6s-7 3-7 7 2.5 6 6 8c3.5 1.7 8 0 8-4.5Z" transform="translate(0,2)"/>
  <circle cx="15" cy="14" r="1.6" fill="#D9824B" stroke="none"/>
  <circle cx="33" cy="14" r="1.6" fill="#D9824B" stroke="none"/>
</svg>
